<?xml version="1.0" encoding="UTF-8" standalone="no"?> <svg xmlns="http://www.w3.org/2000/svg" viewBox="0 0 512 512"><title>Medicine</title><g id="Medicine"><path d="M432.4654,152.2008a80.2608,80.2608,0,0,0-113.5088,0l-71.6651,71.666h-.0009l-71.6661,71.666A80.2625,80.2625,0,0,0,289.1333,409.0407l71.666-71.6661,71.6661-71.666A80.2623,80.2623,0,0,0,432.4654,152.2008ZM415.4966,248.74l-71.668,71.664L264.26,240.8356l71.666-71.666a56.2647,56.2647,0,1,1,79.57,79.57Z"/><path d="M207.8736,113.276,89.85,231.2985A84.2977,84.2977,0,0,0,207.8736,113.276Z"/><path d="M80.6958,104.1207A84.35,84.35,0,0,0,72.8814,214.33L190.9048,96.3073A84.3485,84.3485,0,0,0,80.6958,104.1207Z"/></g></svg>